<svg xmlns="http://www.w3.org/2000/svg" width="32" height="32" viewBox="0 0 32 32"><g transform="translate(179.472 -1011.758)"><path fill="none" stroke="#373449" stroke-linecap="round" stroke-linejoin="round" d="M11.841833 1050.0692c2.461286.7899 5.153392.8271 7.808251 0 6.853319-2.14 10.579711-9.5251 8.439697-16.3785l-3.186871 3.1868M18.176993 1023.776c-6.853394-2.14-14.172243 1.6526-16.3122711 8.5059-.8289678 2.6549-.7917831 5.347-.00193 7.8083l3.9299597-3.8958" transform="translate(-178.494 -9.598)"/><path fill="#00d1b6" fill-opacity=".831" stroke="#373449" d="m -157.95637,1028.273 c 0,-3.0074 -3.0077,-5.5346 -3.0077,-8.0198 -2.00514,0 -2.00514,0 -4.01027,0 0,2.463 -3.0077,5.0124 -3.0077,8.0198 0,2.7683 2.24432,5.0125 5.01283,5.0125 2.76852,0 5.01284,-2.2441 5.01284,-5.0125 z"/><path fill="#ff5a67" stroke="#373449" stroke-linecap="round" stroke-linejoin="round" d="m -164.97434,1020.2531 4.01027,0 0.004,-1.9864 -4.01027,0 z"/><path fill="none" stroke="#373449" stroke-linecap="round" stroke-linejoin="round" d="m -162.96921,1025.2655 0,-5.0123"/><path fill="none" stroke="#373449" d="M-162.96921 1034.7834l0 1M-159.96921 1034.1674l.5.866M-157.77303 1032.0706l.86601.5M-156.48305 1029.2695l.99999 0M-169.47748 1029.2695l-.99998 0M-168.16537 1032.0706l-.86602.5M-165.96922 1034.1674l-.49999.866"/></g></svg>